<svg xmlns="http://www.w3.org/2000/svg" width="121" height="53.645" viewBox="0 0 121 53.645">
    <g id="Layer_1" data-name="Layer 1" transform="translate(-60.4 -177.4)">
        <g id="_Group_" data-name="&lt;Group&gt;" transform="translate(73.619 192.547)">
            <path id="_Path_" data-name="&lt;Path&gt;" d="M132.861,247.08a2.98,2.98,0,1,1-2.98-2.98A2.978,2.978,0,0,1,132.861,247.08Z" transform="translate(-116.802 -235.86)" fill="#e21e26"/>
            <g id="_Group_2" data-name="&lt;Group&gt;">
                <path id="_Path_2" data-name="&lt;Path&gt;" d="M142.5,227.542a4.532,4.532,0,0,1,1.578,1.578,4.681,4.681,0,0,1,.771,2.384l7.819.6c0-.105.035-.21.035-.316a12.8,12.8,0,0,0-6.557-11.185Z" transform="translate(-126.932 -220.6)" fill="#e21e26"/>
                <path id="_Path_3" data-name="&lt;Path&gt;" d="M126.1,265.5a5.156,5.156,0,0,1-4.137.105L118,272.372a12.855,12.855,0,0,0,5.89,1.473,13.007,13.007,0,0,0,6.171-1.578Z" transform="translate(-111.023 -249.757)" fill="#e21e26"/>
                <path id="_Path_4" data-name="&lt;Path&gt;" d="M105.954,232.01a5.069,5.069,0,0,1,2.1-4.067L104.411,221A12.89,12.89,0,0,0,98.1,232.045c0,.21.035.386.035.561Z" transform="translate(-98.1 -220.86)" fill="#e21e26"/>
            </g>
        </g>
        <path id="_Path_5" data-name="&lt;Path&gt;" d="M120.18,219.58a25.843,25.843,0,0,0,5.61-16.094A26.074,26.074,0,0,0,83.47,183.08q2.314,2.314,4.628,4.663a19.427,19.427,0,0,1,11.781-3.927,19.652,19.652,0,1,1-7.188,37.938l-.14-.07q-.281-.105-.526-.21a19.719,19.719,0,0,1-6.732-4.733L80.7,221.333a27.132,27.132,0,0,0,3.331,3.015,3.188,3.188,0,0,1,.351.245l.491.351a9.563,9.563,0,0,0,.806.526l.035.035a25.8,25.8,0,0,0,13.955,4.067,27.133,27.133,0,0,0,7.4-1.052q-.771.28-1.543.526a25.777,25.777,0,0,0,5.926-2.069l3.506,4.067,7.118-6-3.05-3.4A13.772,13.772,0,0,0,120.18,219.58Z" transform="translate(-13.182)" fill="#e21e26"/>
        <path id="_Path_6" data-name="&lt;Path&gt;" d="M66.922,233.01a19,19,0,0,1,.806-5.5,1.838,1.838,0,0,0-.456-1.823L64.993,223.4a1.829,1.829,0,0,0-3.015.666,25.974,25.974,0,0,0,2.665,23.141,1.829,1.829,0,0,0,2.8.28l2.069-2.1a1.756,1.756,0,0,0,.28-2.209A19.31,19.31,0,0,1,66.922,233.01Z" transform="translate(0 -29.523)" fill="#403f40"/>
        <path id="_Path_7" data-name="&lt;Path&gt;" d="M74.477,207.705c-1.718-1.508-1.963-3.576-.561-5.189,1.367-1.543,3.471-1.578,5.189-.07s1.928,3.611.561,5.154C78.3,209.178,76.2,209.213,74.477,207.705Z" transform="translate(-8.187 -15.544)" fill="#403f40"/>
        <path id="_Path_8" data-name="&lt;Path&gt;" d="M233.873,225.888a6.148,6.148,0,0,0-2.1-1.227,11.481,11.481,0,0,0-4.032-.561,11.918,11.918,0,0,0-3.857.6,8.57,8.57,0,0,0-3.015,1.683,7.659,7.659,0,0,0-1.963,2.77,9.5,9.5,0,0,0-.7,3.752v13.78h6.907V234.408a3.858,3.858,0,0,1,1.157-3.156,4.236,4.236,0,0,1,2.77-.947,7.674,7.674,0,0,1,2.279.316,10.473,10.473,0,0,1,1.788.631q.105-.105.386-.421.245-.316.526-.736a4.81,4.81,0,0,0,.491-.982,4.1,4.1,0,0,0,.175-1.227,2.576,2.576,0,0,0-.21-1.087,3.227,3.227,0,0,0-.6-.912Z" transform="translate(-102.472 -30.326)" fill="#403f40"/>
        <path id="_Path_9" data-name="&lt;Path&gt;" d="M288.876,229.009a8.1,8.1,0,0,0-2.56-2.91,10.587,10.587,0,0,0-3.787-1.543,23.219,23.219,0,0,0-4.7-.456q-7.679,0-7.679,3.752a2.993,2.993,0,0,0,.21,1.122,5.147,5.147,0,0,0,.491.947,5.48,5.48,0,0,0,.491.666q.281.245.351.316.175-.105.631-.316a5.276,5.276,0,0,1,1.122-.456,11.6,11.6,0,0,1,1.718-.351,17.385,17.385,0,0,1,2.349-.14,7.431,7.431,0,0,1,4.067.841,2.746,2.746,0,0,1,1.227,2.349h.035v9.327a9.374,9.374,0,0,1-1.227.14q-.947.07-2.069.07a8.443,8.443,0,0,1-2.279-.245,3.213,3.213,0,0,1-1.3-.561,1.725,1.725,0,0,1-.561-.771,2.72,2.72,0,0,1,.035-1.823,2.1,2.1,0,0,1,.631-.842,3.528,3.528,0,0,1,1.262-.561,7.641,7.641,0,0,1,2.1-.245q.421,0,.806.035V232.69h-1.262q-5.5,0-8.064,1.683-2.524,1.718-2.524,5.68a7.761,7.761,0,0,0,.491,2.77,5.655,5.655,0,0,0,1.823,2.314,9.768,9.768,0,0,0,3.436,1.543,20.928,20.928,0,0,0,5.435.6q1.928,0,3.682-.07,1.753-.105,3.085-.245,1.367-.105,2.279-.21a5.369,5.369,0,0,0,1.157-.21V233.532a10.058,10.058,0,0,0-.912-4.523Z" transform="translate(-135.07 -30.326)" fill="#403f40"/>
        <path id="_Path_10" data-name="&lt;Path&gt;" d="M360.15,198.281a7.03,7.03,0,0,0-2.069-.281,4.613,4.613,0,0,0-2.63.666,2.688,2.688,0,0,0-1.017,2.384V209.4h.035v8.7h-.035a3.567,3.567,0,0,1,.07.7,5.045,5.045,0,0,1-1.4,3.787,4.911,4.911,0,0,1-3.576,1.367,4.8,4.8,0,0,1-3.541-1.4,5.144,5.144,0,0,1-1.4-3.752,5.391,5.391,0,0,1,1.4-3.822,4.982,4.982,0,0,1,5.54-1.052,1.938,1.938,0,0,1,.386.175v-6.241a9.129,9.129,0,0,0-3.787-.7,10.259,10.259,0,0,0-7.5,3.191,10.387,10.387,0,0,0-2.279,3.646,12.925,12.925,0,0,0-.841,4.768,12.54,12.54,0,0,0,.877,4.733,10.625,10.625,0,0,0,2.524,3.646,11.228,11.228,0,0,0,3.752,2.349,13,13,0,0,0,4.733.842,13.663,13.663,0,0,0,5.61-1.122,10.3,10.3,0,0,0,4.172-3.261,9.784,9.784,0,0,0,1.613-3.4,18.193,18.193,0,0,0,.561-4.8V198.631q-.245-.07-1.192-.351Z" transform="translate(-179.942 -13.377)" fill="#403f40"/>
    </g>
</svg>
