<svg xmlns="http://www.w3.org/2000/svg" width="15.514" height="21.5" viewBox="0 0 15.514 21.5">
    <g id="phone-svgrepo-com" transform="translate(-4.243 -1.25)">
        <path id="Path_46966" data-name="Path 46966" d="M15,22.75H8.954a5.02,5.02,0,0,1-4.7-5.269V6.52a5.02,5.02,0,0,1,4.7-5.269h6.093a5.02,5.02,0,0,1,4.7,5.269V17.48a5.02,5.02,0,0,1-4.7,5.269Zm-5.976-1.5h5.952a3.52,3.52,0,0,0,3.275-3.708q0-.021,0-.042V6.5q0-.021,0-.042A3.52,3.52,0,0,0,14.976,2.75H9.024A3.52,3.52,0,0,0,5.749,6.458q0,.021,0,.042v11q0,.021,0,.042A3.52,3.52,0,0,0,9.024,21.25Z"/>
        <path id="Path_46967" data-name="Path 46967" d="M14,5.75H10a.75.75,0,0,1,0-1.5h4a.75.75,0,0,1,0,1.5Z"/>
    </g>
</svg>
