<svg xmlns="http://www.w3.org/2000/svg" width="14.858" height="14.858" viewBox="0 0 14.858 14.858">
  <g id="Icon_feather-download" data-name="Icon feather-download" transform="translate(-3 -3)">
    <path id="Path_46970" data-name="Path 46970" d="M15.629,26.943H5.229A2.231,2.231,0,0,1,3,24.715V21.743a.743.743,0,1,1,1.486,0v2.972a.744.744,0,0,0,.743.743h10.4a.744.744,0,0,0,.743-.743V21.743a.743.743,0,1,1,1.486,0v2.972A2.231,2.231,0,0,1,15.629,26.943Z" transform="translate(0 -9.085)" fill="#fff"/>
    <path id="Path_46971" data-name="Path 46971" d="M13.457,18.7a.741.741,0,0,1-.525-.218L9.218,14.768a.743.743,0,0,1,1.051-1.051l3.189,3.189,3.189-3.189A.743.743,0,0,1,17.7,14.768l-3.715,3.715A.741.741,0,0,1,13.457,18.7Z" transform="translate(-3.028 -5.3)" fill="#fff"/>
    <path id="Path_46972" data-name="Path 46972" d="M17.243,13.4a.743.743,0,0,1-.743-.743V3.743a.743.743,0,1,1,1.486,0v8.915A.743.743,0,0,1,17.243,13.4Z" transform="translate(-6.814)" fill="#fff"/>
  </g>
</svg>
